<svg width="20" height="21" viewBox="0 0 20 21" fill="none" xmlns="http://www.w3.org/2000/svg">
<g id="icons">
<path id="Vector" d="M6.91066 3.66147C6.75443 3.81774 6.66667 4.02967 6.66667 4.25064C6.66667 4.47161 6.75443 4.68353 6.91066 4.8398L12.1548 10.084L6.91066 15.3281C6.83107 15.405 6.76758 15.497 6.72391 15.5986C6.68023 15.7003 6.65724 15.8097 6.65628 15.9203C6.65532 16.0309 6.6764 16.1407 6.71831 16.2431C6.76021 16.3455 6.82208 16.4386 6.90033 16.5168C6.97857 16.595 7.07161 16.6569 7.17403 16.6988C7.27644 16.7407 7.38617 16.7618 7.49682 16.7608C7.60747 16.7599 7.71682 16.7369 7.81849 16.6932C7.92016 16.6495 8.01212 16.5861 8.08899 16.5065L13.9223 10.6731C14.0786 10.5169 14.1663 10.3049 14.1663 10.084C14.1663 9.863 14.0786 9.65107 13.9223 9.4948L8.08899 3.66147C7.93272 3.50524 7.72079 3.41748 7.49982 3.41748C7.27885 3.41748 7.06693 3.50524 6.91066 3.66147Z" fill="#5B5E65"/>
</g>
</svg>
