<svg width="24" height="25" viewBox="0 0 24 25" fill="none" xmlns="http://www.w3.org/2000/svg">
<g id="icons">
<path id="Vector" d="M4.29279 8.37707C4.48031 8.18959 4.73462 8.08428 4.99979 8.08428C5.26495 8.08428 5.51926 8.18959 5.70679 8.37707L11.9998 14.6701L18.2928 8.37707C18.385 8.28156 18.4954 8.20537 18.6174 8.15296C18.7394 8.10055 18.8706 8.07297 19.0034 8.07182C19.1362 8.07066 19.2678 8.09596 19.3907 8.14624C19.5136 8.19653 19.6253 8.27078 19.7192 8.36467C19.8131 8.45856 19.8873 8.57022 19.9376 8.69311C19.9879 8.81601 20.0132 8.94769 20.012 9.08047C20.0109 9.21325 19.9833 9.34447 19.9309 9.46647C19.8785 9.58847 19.8023 9.69882 19.7068 9.79107L12.7068 16.7911C12.5193 16.9785 12.265 17.0839 11.9998 17.0839C11.7346 17.0839 11.4803 16.9785 11.2928 16.7911L4.29279 9.79107C4.10532 9.60354 4 9.34923 4 9.08407C4 8.8189 4.10532 8.56459 4.29279 8.37707Z" fill="#5B5E65"/>
</g>
</svg>
