<svg width="24" height="25" viewBox="0 0 24 25" fill="none" xmlns="http://www.w3.org/2000/svg">
<g id="icons">
<path id="Vector" d="M8 12.084C9.06087 12.084 10.0783 11.6626 10.8284 10.9124C11.5786 10.1623 12 9.14485 12 8.08398C12 7.02312 11.5786 6.0057 10.8284 5.25556C10.0783 4.50541 9.06087 4.08398 8 4.08398C6.93913 4.08398 5.92172 4.50541 5.17157 5.25556C4.42143 6.0057 4 7.02312 4 8.08398C4 9.14485 4.42143 10.1623 5.17157 10.9124C5.92172 11.6626 6.93913 12.084 8 12.084ZM17 12.084C17.7956 12.084 18.5587 11.7679 19.1213 11.2053C19.6839 10.6427 20 9.87963 20 9.08398C20 8.28833 19.6839 7.52527 19.1213 6.96266C18.5587 6.40005 17.7956 6.08398 17 6.08398C16.2044 6.08398 15.4413 6.40005 14.8787 6.96266C14.3161 7.52527 14 8.28833 14 9.08398C14 9.87963 14.3161 10.6427 14.8787 11.2053C15.4413 11.7679 16.2044 12.084 17 12.084ZM4.25 14.084C3.65326 14.084 3.08097 14.321 2.65901 14.743C2.23705 15.165 2 15.7372 2 16.334V16.584C2 16.584 2 21.084 8 21.084C14 21.084 14 16.584 14 16.584V16.334C14 15.7372 13.7629 15.165 13.341 14.743C12.919 14.321 12.3467 14.084 11.75 14.084H4.25ZM17 19.584C15.829 19.584 14.932 19.403 14.245 19.126C14.6449 18.4512 14.8958 17.6987 14.981 16.919C14.9907 16.8242 14.9971 16.7292 15 16.634V16.334C15.0013 15.4962 14.678 14.6905 14.098 14.086L14.2 14.084H19.8C20.3835 14.084 20.9431 14.3158 21.3556 14.7283C21.7682 15.1409 22 15.7005 22 16.284C22 16.284 22 19.584 17 19.584Z" fill="#181C21"/>
</g>
</svg>
