<svg width="20" height="21" viewBox="0 0 20 21" fill="none" xmlns="http://www.w3.org/2000/svg">
<g id="icons">
<path id="Vector" d="M14.5833 10.084C15.7988 10.084 16.9646 10.5669 17.8242 11.4265C18.6837 12.286 19.1666 13.4518 19.1666 14.6674C19.1666 15.883 18.6837 17.0487 17.8242 17.9083C16.9646 18.7678 15.7988 19.2507 14.5833 19.2507C13.3677 19.2507 12.2019 18.7678 11.3423 17.9083C10.4828 17.0487 9.99992 15.883 9.99992 14.6674C9.99992 13.4518 10.4828 12.286 11.3423 11.4265C12.2019 10.5669 13.3677 10.084 14.5833 10.084ZM10.0191 11.7507C9.46116 12.6211 9.16524 13.6335 9.16659 14.6674C9.16659 16.0257 9.66659 17.2674 10.4933 18.219C9.83048 18.3524 9.11048 18.4191 8.33326 18.4191C5.48326 18.4191 3.37992 17.5249 2.09492 15.7215C1.81836 15.3332 1.6698 14.8683 1.66992 14.3916V13.6249C1.67014 13.1279 1.86767 12.6513 2.2191 12.2999C2.57052 11.9485 3.0471 11.7509 3.54409 11.7507H10.0191ZM12.3774 14.3732C12.3394 14.3319 12.2933 14.2987 12.2421 14.2757C12.1909 14.2526 12.1355 14.2401 12.0794 14.239C12.0232 14.2379 11.9674 14.2481 11.9153 14.2691C11.8632 14.2901 11.8159 14.3214 11.7762 14.3612C11.7365 14.4009 11.7053 14.4483 11.6844 14.5004C11.6634 14.5526 11.6533 14.6084 11.6545 14.6645C11.6557 14.7207 11.6682 14.776 11.6914 14.8272C11.7145 14.8784 11.7477 14.9244 11.7891 14.9624L13.4558 16.629C13.5339 16.7072 13.6399 16.751 13.7503 16.751C13.8608 16.751 13.9668 16.7072 14.0449 16.629L17.3783 13.2957C17.4181 13.2573 17.4498 13.2113 17.4716 13.1605C17.4935 13.1096 17.505 13.055 17.5054 12.9996C17.5059 12.9443 17.4954 12.8894 17.4744 12.8382C17.4535 12.787 17.4225 12.7405 17.3834 12.7014C17.3443 12.6623 17.2978 12.6313 17.2466 12.6104C17.1954 12.5894 17.1405 12.5789 17.0852 12.5794C17.0298 12.5798 16.9752 12.5913 16.9243 12.6132C16.8735 12.635 16.8275 12.6668 16.7891 12.7065L13.7499 15.7449L12.3774 14.3732ZM8.33326 1.75488C8.88043 1.75488 9.42225 1.86266 9.92777 2.07205C10.4333 2.28145 10.8926 2.58836 11.2795 2.97527C11.6664 3.36218 11.9734 3.82151 12.1828 4.32703C12.3921 4.83256 12.4999 5.37437 12.4999 5.92155C12.4999 6.46872 12.3921 7.01054 12.1828 7.51606C11.9734 8.02159 11.6664 8.48092 11.2795 8.86783C10.8926 9.25474 10.4333 9.56165 9.92777 9.77105C9.42225 9.98044 8.88043 10.0882 8.33326 10.0882C7.22819 10.0882 6.16838 9.64923 5.38698 8.86783C4.60558 8.08643 4.16659 7.02662 4.16659 5.92155C4.16659 4.81648 4.60558 3.75667 5.38698 2.97527C6.16838 2.19387 7.22819 1.75488 8.33326 1.75488Z" fill="#5B5E65"/>
</g>
</svg>
