<svg width="18" height="19" viewBox="0 0 18 19" fill="none" xmlns="http://www.w3.org/2000/svg">
<g id="icons">
<path id="Vector" d="M13.125 9.08418C14.219 9.08418 15.2682 9.51877 16.0418 10.2924C16.8154 11.0659 17.25 12.1152 17.25 13.2092C17.25 14.3032 16.8154 15.3524 16.0418 16.126C15.2682 16.8996 14.219 17.3342 13.125 17.3342C12.031 17.3342 10.9818 16.8996 10.2082 16.126C9.4346 15.3524 9 14.3032 9 13.2092C9 12.1152 9.4346 11.0659 10.2082 10.2924C10.9818 9.51877 12.031 9.08418 13.125 9.08418ZM13.125 10.5842L13.0575 10.5902C12.9826 10.6039 12.9136 10.64 12.8597 10.6939C12.8059 10.7478 12.7697 10.8167 12.756 10.8917L12.75 10.9592V12.8342H10.8735L10.806 12.8409C10.7311 12.8546 10.6621 12.8908 10.6082 12.9447C10.5544 12.9985 10.5182 13.0675 10.5045 13.1424L10.4985 13.2099L10.5045 13.2774C10.5182 13.3524 10.5544 13.4213 10.6082 13.4752C10.6621 13.5291 10.7311 13.5652 10.806 13.5789L10.8735 13.5849H12.75V15.4622L12.756 15.5297C12.7697 15.6046 12.8059 15.6736 12.8597 15.7274C12.9136 15.7813 12.9826 15.8175 13.0575 15.8312L13.125 15.8372L13.1925 15.8312C13.2674 15.8175 13.3364 15.7813 13.3903 15.7274C13.4441 15.6736 13.4803 15.6046 13.494 15.5297L13.5 15.4622V13.5842H15.378L15.4455 13.5789C15.5204 13.5652 15.5894 13.5291 15.6433 13.4752C15.6971 13.4213 15.7333 13.3524 15.747 13.2774L15.753 13.2099L15.747 13.1424C15.7333 13.0674 15.697 12.9983 15.643 12.9445C15.589 12.8906 15.5198 12.8545 15.4447 12.8409L15.3773 12.8349H13.5V10.9599L13.494 10.8924C13.4804 10.8174 13.4443 10.7482 13.3905 10.6942C13.3366 10.6402 13.2675 10.6039 13.1925 10.5902L13.125 10.5842ZM10.4438 1.96218C10.7378 1.96215 11.0267 2.03896 11.2819 2.18498C11.5371 2.331 11.7498 2.54118 11.8988 2.79468L12.5093 3.83493H14.0625C14.7088 3.83493 15.3287 4.09163 15.7858 4.54859C16.2429 5.00555 16.4998 5.62534 16.5 6.27168V9.69168C16.1656 9.37032 15.787 9.09833 15.3757 8.88393L15.375 6.27168C15.375 5.92358 15.2367 5.58974 14.9906 5.3436C14.7444 5.09746 14.4106 4.95918 14.0625 4.95918H12.1875C12.0894 4.95923 11.9931 4.93365 11.908 4.88497C11.8228 4.83629 11.7519 4.76621 11.7022 4.68168L10.9283 3.36393C10.8786 3.2795 10.8078 3.20949 10.7229 3.16082C10.6379 3.11215 10.5417 3.0865 10.4438 3.08643H7.5915C7.50942 3.08649 7.42836 3.10452 7.35399 3.13924C7.27962 3.17397 7.21375 3.22454 7.161 3.28743L7.11225 3.35493L6.2925 4.69068C6.24223 4.77267 6.17178 4.8404 6.08788 4.88741C6.00398 4.93441 5.90942 4.95912 5.81325 4.95918H3.93825C3.76583 4.95908 3.59507 4.99295 3.43575 5.05887C3.27642 5.12478 3.13164 5.22145 3.00969 5.34333C2.88773 5.46522 2.79099 5.60994 2.72498 5.76923C2.65897 5.92852 2.625 6.09925 2.625 6.27168V13.3967C2.625 14.1212 3.213 14.7092 3.9375 14.7092H8.48475C8.6145 15.1089 8.79375 15.4869 9.0165 15.8342H3.9375C3.29103 15.8342 2.67105 15.5774 2.21393 15.1202C1.75681 14.6631 1.5 14.0431 1.5 13.3967V6.27168C1.5 5.62521 1.75681 5.00522 2.21393 4.5481C2.67105 4.09098 3.29103 3.83418 3.9375 3.83418H5.4975L6.15375 2.76618C6.30464 2.52034 6.51603 2.31729 6.76773 2.1764C7.01944 2.03552 7.30305 1.9615 7.5915 1.96143L10.4438 1.96218ZM9 6.08418C9.71357 6.0839 10.4089 6.30979 10.986 6.72942C11.5632 7.14904 11.9925 7.74079 12.2123 8.41968C11.8363 8.49168 11.478 8.60393 11.1375 8.75643C10.9713 8.24714 10.6288 7.8139 10.1716 7.53468C9.71435 7.25546 9.17249 7.1486 8.64351 7.23333C8.11453 7.31806 7.63316 7.58881 7.28604 7.99686C6.93892 8.40491 6.74883 8.92345 6.75 9.45918C6.75 10.5317 7.5 11.4279 8.5035 11.6544C8.38382 12.011 8.3058 12.3802 8.271 12.7547C7.46092 12.5731 6.74615 12.0994 6.2633 11.424C5.78045 10.7487 5.56339 9.91915 5.65359 9.09388C5.74379 8.26861 6.13493 7.50552 6.75226 6.95044C7.36959 6.39536 8.16982 6.08723 9 6.08493" fill="#181C21"/>
</g>
</svg>
