<svg width="18" height="19" viewBox="0 0 18 19" fill="none" xmlns="http://www.w3.org/2000/svg">
<g id="icons">
<path id="Vector" d="M9 1.58398C4.85775 1.58398 1.5 4.94173 1.5 9.08398C1.5 13.2262 4.85775 16.584 9 16.584C13.1423 16.584 16.5 13.2262 16.5 9.08398C16.5 4.94173 13.1423 1.58398 9 1.58398ZM7.5555 2.87398C8.50581 2.6529 9.49419 2.6529 10.4445 2.87398L9.0015 3.73873L7.5555 2.87398ZM6.183 3.36373L8.439 4.71373V6.35848L6.34575 7.87949L4.81275 7.34924L4.3725 4.69873C4.8921 4.14994 5.50514 3.6979 6.183 3.36373ZM3.4425 5.96023L3.711 7.57798L2.64 8.64898C2.70324 7.70403 2.97746 6.78526 3.4425 5.96023ZM2.7165 10.1632L4.46175 8.41799L5.99175 8.94674L6.8025 11.4465L6.075 12.6277L3.60525 12.4822C3.15958 11.775 2.85809 10.9871 2.7165 10.1632ZM4.56825 13.6657L5.99625 13.7497L6.5025 14.9512C5.78421 14.6449 5.12907 14.2091 4.56825 13.6657ZM7.89675 15.3637L7.00875 13.257L7.731 12.0817H10.26L10.944 13.2675L10.164 15.3525C9.41484 15.4901 8.64724 15.4939 7.89675 15.3637ZM11.5193 14.9415L11.9445 13.8037L13.197 13.8825C12.6962 14.3209 12.1299 14.6783 11.5185 14.9415M14.1675 12.816L11.8995 12.6735L11.196 11.4555L12.0113 8.94674L13.521 8.42474L15.255 10.3147C15.0772 11.2172 14.7062 12.0705 14.1675 12.816ZM15.366 8.77274L14.286 7.59524L14.5575 5.96173C15.0425 6.82287 15.3194 7.78551 15.366 8.77274ZM13.6275 4.70023L13.1858 7.35073L11.6558 7.87949L9.5625 6.35848V4.71298L11.814 3.36298C12.4932 3.69775 13.1073 4.15008 13.6275 4.70023ZM7.09875 8.72248L9 7.34098L10.9013 8.72248L10.1753 10.9575H7.82475L7.09875 8.72248Z" fill="#181C21"/>
</g>
</svg>
