<svg id="Layer_1" data-name="Layer 1" xmlns="http://www.w3.org/2000/svg" viewBox="0 0 73 92"><defs><style>.cls-1,.cls-2,.cls-3{fill:none;stroke-linejoin:round;}.cls-1{stroke:#ff0;}.cls-1,.cls-2{stroke-width:0.25px;}.cls-2{stroke:#fcee21;}.cls-3{stroke:#000;stroke-width:2px;}</style></defs><path class="cls-1" d="M26.5,4A12.89,12.89,0,0,0,27,15c3,6,4,9,7.5,13.5C37.1,31.85,49,36.16,49,36.16"/><path class="cls-1" d="M25.5,7A12.89,12.89,0,0,0,26,18c3,6,4,9,7.5,13.5C36.1,34.85,48,39.16,48,39.16"/><path class="cls-1" d="M26,14s-1,4,2,10,4,9,7.5,13.5C38.1,40.85,50,45.16,50,45.16"/><path class="cls-1" d="M28,17s-3,6,0,12,4,9,7.5,13.5C38.1,45.85,56,53,56,53"/><path class="cls-1" d="M30,22s-3,8,0,14,4,9,7.5,13.5C40.1,52.85,59,59,59,59"/><path class="cls-1" d="M33,27s-4,9-1,15,4,9,7.5,13.5C42.1,58.85,54,63.16,54,63.16"/><path class="cls-1" d="M36,30s-3,12,0,18,4,9,7.5,13.5C46.1,64.85,63,70,63,70"/><path class="cls-1" d="M40,32s-5,18-2,24,4,9,7.5,13.5C48.1,72.85,60,77.16,60,77.16"/><path class="cls-1" d="M43,34s-5,21-2,27,4,9,7.5,13.5C51.1,77.85,63,82.16,63,82.16"/><path class="cls-1" d="M47,38s-3,24,0,30,4,9,7.5,13.5C57.1,84.85,69,89.16,69,89.16"/><path class="cls-1" d="M43,39s-3,24,0,30,4,9,7.5,13.5C53.1,85.85,65,90.16,65,90.16"/><path class="cls-1" d="M37,37s-3,25,0,31,4,9,7.5,13.5C47.1,84.85,59,89.16,59,89.16"/><path class="cls-1" d="M33,37s-3,25,0,31a85,85,0,0,0,9,15c2.6,3.35,12,6.16,12,6.16"/><path class="cls-1" d="M30,37s-4,30-1,36,3.5,7.5,7,12c2.6,3.35,17,4.16,17,4.16"/><path class="cls-1" d="M51,38s.94,25,3,31,4.66,8,7.06,12.5c1.79,3.35,10,7.66,10,7.66"/><path class="cls-1" d="M47,38s.94,25,3,31,4.66,8,7.06,12.5c1.79,3.35,10,7.66,10,7.66"/><path class="cls-1" d="M47,89s.62,1.81,8-4A58.28,58.28,0,0,0,66,74"/><path class="cls-1" d="M34,89s4.23-1.38,11.62-7.19S62,66,62,66"/><path class="cls-1" d="M28,86a107.84,107.84,0,0,0,13.62-9.19C49,71,60,60,60,60"/><path class="cls-1" d="M27,77s4.23.62,11.62-5.19S57,54,57,54"/><path class="cls-1" d="M27,70s3.23,1.62,10.62-4.19S55,48,55,48"/><path class="cls-1" d="M27,64s3.23.62,10.62-5.19S51.87,41.62,51.87,41.62"/><path class="cls-1" d="M27,58s2.23.62,9.62-5.19S50,37,50,37"/><path class="cls-1" d="M28,49s2,2,3.62.81A31.8,31.8,0,0,0,42,36"/><path class="cls-1" d="M2.42,7.17S4,10,12,10A61.16,61.16,0,0,0,27.65,7.67"/><path class="cls-1" d="M3.42,2s1.35,4,8.2,4A34.08,34.08,0,0,0,25,2.71"/><path class="cls-1" d="M2,4s1.44,4,8.73,4A38.2,38.2,0,0,0,25,4.71"/><path class="cls-1" d="M3.42,11S5,14,12.75,14A55.19,55.19,0,0,0,28,11.53"/><path class="cls-1" d="M3.42,15s1.85,4,11.23,4A60.74,60.74,0,0,0,33,15.71"/><path class="cls-1" d="M3.42,19s2,4,12.37,4A72.78,72.78,0,0,0,36,19.71"/><path class="cls-1" d="M3.42,24s2.17,4,13.13,4A81.54,81.54,0,0,0,38,24.71"/><path class="cls-1" d="M3,30s2.5,5,15.19,5A88,88,0,0,0,43,30.89"/><path class="cls-1" d="M3.42,34s2.17,6,13.13,6S38,35.07,38,35.07"/><path class="cls-1" d="M3.42,41s2.29,5,13.89,5A74.42,74.42,0,0,0,40,41.89"/><path class="cls-1" d="M3.42,48S6,52,18.83,52A110.87,110.87,0,0,0,44,48.71"/><path class="cls-2" d="M5.37,1.79S7,23.79,7,31.71C7,40,4.5,54,4.5,54"/><path class="cls-2" d="M9.37,1.79S11,23.79,11,31.71C11,40,8.5,54,8.5,54"/><path class="cls-2" d="M13.37,1.79S15,23.79,15,31.71C15,40,12.5,54,12.5,54"/><path class="cls-2" d="M17.37,1.79S19,23.79,19,31.71C19,40,16.5,54,16.5,54"/><path class="cls-2" d="M22.37,1.79S24,23.79,24,31.71C24,40,21.5,54,21.5,54"/><path class="cls-2" d="M26.37,5S28,25.65,28,33.08C28,40.85,25.5,54,25.5,54"/><path class="cls-2" d="M32.2,20s1.62,14.33,1.62,19.49c0,5.39-2.5,14.51-2.5,14.51"/><line class="cls-3" x1="45.96" y1="53.13" x2="70.03" y2="89.5"/><line class="cls-3" x1="22.78" y1="1.5" x2="47.78" y2="36.5"/><path class="cls-3" d="M45,54.5H2.5V1.5H22.78A4,4,0,0,1,25,2.19,4,4,0,0,1,26.5,4L46,53.13A1,1,0,0,1,45,54.5Z"/><line class="cls-3" x1="2.5" y1="1.5" x2="27.5" y2="36.5"/><path class="cls-3" d="M70,89.5H27.5v-53H47.78A4,4,0,0,1,51.5,39L71,88.13A1,1,0,0,1,70,89.5Z"/></svg>